{"accessors" : [{"bufferView" : 0, "byteOffset" : 0, "componentType" : 5126, "count" : 47822, "type" : "VEC3", "max" : [2.251378297805786, 52.011714935302734, 2.3460893630981445], "min" : [-2.5569982528686523, -0.02735726349055767, -2.60221791267395], "name" : "POSITION"}], "asset" : {"generator" : "Aspose.3D 23.12.0", "version" : "2.0"}, "buffers" : [{"uri" : "data:application/octet-stream;base64,", "byteLength" : 573868}], "bufferViews" : [{"buffer" : 0, "byteOffset" : 0, "byteLength" : 573864, "byteStride" : 12, "target" : 34962}], "meshes" : [{"primitives" : [{"attributes" : {"POSITION" : 0}, "mode" : 0}], "name" : ""}], "nodes" : [{"mesh" : 0, "name" : ""}], "scene" : 0, "scenes" : [{"nodes" : [0]}]}